<svg id="Capa_1" enable-background="new 0 0 512 512" height="512" viewBox="0 0 512 512" width="512" xmlns="http://www.w3.org/2000/svg"><g><path d="m314.251 59.306 11.478-11.712s-12.15-22.628-13.187-29.178c-16.71-12.553-36.698-18.416-56.542-18.416s-39.833 5.863-56.542 18.417l-13.264 29.178 11.555 11.712z" fill="#a71f29"/><path d="m256 47.595c-20.04 0-40.192 3.771-58.251 11.712l-8.278 9.275 10.402 11.694c17.128-9.491 36.69-13.961 56.127-13.961s38.999 4.47 56.127 13.961l10.403-11.704-8.279-9.265c-18.059-7.942-38.211-11.712-58.251-11.712z" fill="#931d2c"/><path d="m400.665 441.86c-29.762-34.488-63.019-79.065-93.84-126.69l-43.793-43.264-16.396-60.952c-24.131-48.026-41.684-94.095-46.859-131.317-3.243-23.327-3.097-43.674-.316-61.229-8.612 6.467-16.341 14.727-22.74 24.866-9.73 19.68-17.039 59.263-11.921 96.074 12.545 90.224 107.923 255.23 194.046 356.092 0 0 14.532 2.756 14.532 2.755l27.904-50.42c1.055-1.908.808-4.264-.617-5.915z" fill="#c32430"/><path d="m306.825 315.17c-7.052-10.897-13.974-21.954-20.7-33.085l.001-.001c-14.285-23.642-27.673-47.62-39.486-71.131-11.813 23.512-25.201 47.489-39.486 71.131 5.755 11.458 11.889 23.027 18.314 34.614-.001.002-.002.003-.003.005.605 1.143 20.999 36.217 21.179 36.525 6.493 10.749 13.165 21.431 19.965 31.965 14.369-23.126 27.988-46.721 40.216-70.023z" fill="#a71f29"/><path d="m176.72 43.273c-8.796 22.702-12.131 52.077-7.013 88.888 13.744 98.853 123.365 270.668 203.67 366.034l-6.152 11.117c-1.757 3.174-6.141 3.629-8.498.871-79.975-93.434-184.083-258.281-198.38-359.302-6.661-47.902.983-83.224 16.373-107.608z" fill="#a71f29"/><path d="m312.224 79.637c3.243-23.327 3.097-43.674.317-61.229 29.322 22.02 48.543 64.653 39.113 132.474-13.97 100.471-118.124 265.396-198.379 359.302-2.357 2.758-6.741 2.303-8.498-.871l-34.057-61.536c-1.056-1.908-.809-4.265.616-5.916 80.576-93.373 186.772-260.703 200.888-362.224z" fill="#da4a54"/><path d="m138.623 498.195 12.697-1.912c77.548-98.087 183.319-268.834 195.99-359.961 5.118-36.811.279-69.812-12.03-93.049-6.399-10.139-14.128-18.399-22.74-24.866 2.78 17.555 2.927 37.902-.317 61.229-14.115 101.522-120.311 268.852-200.888 362.224-1.425 1.651-1.673 4.008-.616 5.916z" fill="#da4a54"/><g fill="#d82e3d"><path d="m335.28 43.273c8.796 22.702 12.131 52.077 7.013 88.888-13.745 98.853-123.365 270.668-203.67 366.034l6.152 11.117c1.757 3.174 6.141 3.629 8.498.871 80.255-93.905 184.41-258.831 198.38-359.302 6.66-47.902-.983-83.224-16.373-107.608z"/><path d="m335.28 43.281c8.796 22.702 12.131 52.077 7.013 88.888-13.745 98.853-123.365 270.668-203.67 366.034l6.152 11.117c1.757 3.174 6.141 3.629 8.498.871 80.255-93.905 184.41-258.831 198.38-359.302 6.66-47.902-.983-83.224-16.373-107.608z"/></g></g></svg>