<svg height="464pt" viewBox="0 -56 464 464" width="464pt" xmlns="http://www.w3.org/2000/svg"><path d="m16 0h448v304h-448zm0 0" fill="#ffc477"/><path d="m464 0v304h-431.601562c151.488281-56.125 278.414062-163.734375 358.5625-304zm0 0" fill="#ffb655"/><path d="m96 192c26.507812 0 48-21.492188 48-48v-16h-48l-24-24-8 24h-16v16c0 26.507812 21.492188 48 48 48zm0 0" fill="#ffdaaa"/><path d="m72 104 24 24h56c0-30.929688-25.070312-56-56-56s-56 25.070312-56 56h24zm0 0" fill="#787680"/><path d="m134.398438 211.199219-38.398438 52.800781v88h96v-64c0-35.554688-23.464844-66.84375-57.601562-76.800781zm0 0" fill="#5aaae7"/><path d="m134.398438 211.199219c-7.277344-2.121094-14.816407-3.199219-22.398438-3.199219h-32c-7.582031 0-15.121094 1.078125-22.398438 3.199219l38.398438 52.800781zm0 0" fill="#ffdaaa"/><path d="m57.601562 211.199219c-34.136718 9.957031-57.601562 41.246093-57.601562 76.800781v64h96v-88zm0 0" fill="#3d9ae2"/><path d="m333.257812 106.742188c-11.992187-12.015626-28.28125-18.761719-45.257812-18.742188v64h64c.023438-16.976562-6.722656-33.265625-18.742188-45.257812zm0 0" fill="#ffd422"/><path d="m288 152-45.257812 45.257812c18.304687 18.304688 45.835937 23.777344 69.75 13.871094 23.914062-9.90625 39.507812-33.242187 39.507812-59.128906zm0 0" fill="#00ccb3"/><path d="m288 88c-25.886719 0-49.222656 15.59375-59.128906 39.507812-9.90625 23.914063-4.433594 51.445313 13.871094 69.75l45.257812-45.257812zm0 0" fill="#ff6243"/><path d="m128 248h16v16h-16zm0 0" fill="#1e81ce"/><path d="m152 272h16v80h-16zm0 0" fill="#3d9ae2"/><path d="m24 272h16v80h-16zm0 0" fill="#1e81ce"/><g fill="#3d9ae2"><path d="m160 32h48v16h-48zm0 0"/><path d="m224 32h16v16h-16zm0 0"/><path d="m160 64h80v16h-80zm0 0"/></g><path d="m325.65625 125.65625-11.3125-11.3125 32-32c1.5-1.5 3.535156-2.34375 5.65625-2.34375h16v16h-12.6875zm0 0" fill="#ff6243"/><path d="m384 64h32v16h-32zm0 0" fill="#ffd422"/><path d="m384 96h32v16h-32zm0 0" fill="#ffd422"/><path d="m352 240h-16c-2.121094 0-4.15625-.84375-5.65625-2.34375l-40-40 11.3125-11.3125 37.65625 37.65625h12.6875zm0 0" fill="#ff6243"/><path d="m368 208h16v16h-16zm0 0" fill="#00ccb3"/><path d="m400 208h16v16h-16zm0 0" fill="#00ccb3"/><path d="m368 240h48v16h-48zm0 0" fill="#00ccb3"/></svg>