<svg id="Capa_1" enable-background="new 0 0 512 512" height="512" viewBox="0 0 512 512" width="512" xmlns="http://www.w3.org/2000/svg"><g><path d="m100.141 502.419h347.272c12.151 0 15.484-15.932 15.484-24.484v-462.451c-.001-8.552-6.933-15.484-15.485-15.484h-347.271c-8.552 0-15.484 6.932-15.484 15.484v93.355l-9 7.744 9 7.563v67.797l-9 7.508 9 7.799v67.797l-9 7.999 9 7.307v67.796l-9 7.036 9 8.27v67.797l-9 7.121 9 8.185v21.377c0 8.552 1.969 24.484 15.484 24.484z" fill="#e7ecf6"/><path d="m400.101 137.432c-8.355-43.426-45.431-76.632-90.69-79.058-2.882-.154-5.317 2.107-5.317 4.993v74.064l48.004 9z" fill="#a2dafd"/><path d="m272.101 269.376c8.908 0 25.633-14.813 25.633-14.813l-3.41-32.809-22.223-34.958v-84.919c0-2.88-2.427-5.164-5.302-4.997-44.195 2.565-79.83 36.998-84.289 80.659 0 55.775 42.996 91.837 89.591 91.837z" fill="#ffe07d"/><path d="m297.734 254.562c-8.126 2.409-16.725 3.721-25.633 3.721-46.607 0-84.945-35.4-89.595-80.779-.313 3.054-.474 6.153-.474 9.29 0 49.744 40.326 90.069 90.07 90.069 11.222 0 21.963-2.058 31.872-5.809l5.896-12.211z" fill="#ffd064"/><path d="m360.018 187.802c-.833-.628-1.866-1.006-2.997-1.006h-84.919l25.638 67.78 18.321 2.135c23.932-11.953 43.957-36.83 43.957-68.909z" fill="#de5974"/><g fill="#384656"><path d="m402.152 331.509h-231.113c-4.285 0-7.757 3.473-7.757 7.757s3.473 7.757 7.757 7.757h231.113c4.285 0 7.757-3.473 7.757-7.757s-3.472-7.757-7.757-7.757z"/><path d="m409.909 386.656c0-4.284-3.472-7.757-7.757-7.757h-231.113c-4.285 0-7.757 3.473-7.757 7.757s3.473 7.757 7.757 7.757h231.113c4.285.001 7.757-3.473 7.757-7.757z"/><path d="m171.039 426.29c-4.285 0-7.757 3.473-7.757 7.757s3.473 7.757 7.757 7.757h164.553c4.285 0 7.757-3.473 7.757-7.757s-3.473-7.757-7.757-7.757z"/></g><g fill="#cf8151"><path d="m83.546 387.766c-18.991 0-34.442 15.45-34.442 34.441 0 18.99 15.451 34.44 34.442 34.44.378 0 .747-.036 1.111-.089v-15.306c-.364-.052-.733-.089-1.111-.089-10.454 0-18.958-8.504-18.958-18.957s8.504-18.957 18.958-18.957c10.453 0 18.957 8.504 18.957 18.957 0 4.276 3.466 7.742 7.742 7.742s7.742-3.466 7.742-7.742c-.001-18.99-15.451-34.44-34.441-34.44z"/><path d="m83.546 304.662c-18.991 0-34.442 15.45-34.442 34.441 0 18.99 15.451 34.441 34.442 34.441.378 0 .747-.036 1.111-.089v-15.306c-.364-.052-.733-.089-1.111-.089-10.454 0-18.958-8.504-18.958-18.957s8.504-18.957 18.958-18.957c10.453 0 18.957 8.504 18.957 18.957 0 4.276 3.466 7.742 7.742 7.742s7.742-3.466 7.742-7.742c-.001-18.991-15.451-34.441-34.441-34.441z"/><path d="m83.546 221.56c-18.991 0-34.442 15.45-34.442 34.44 0 18.991 15.451 34.441 34.442 34.441.378 0 .747-.036 1.111-.089v-15.306c-.364-.052-.733-.089-1.111-.089-10.454 0-18.958-8.504-18.958-18.957s8.504-18.957 18.958-18.957c10.453 0 18.957 8.504 18.957 18.957 0 4.276 3.466 7.742 7.742 7.742s7.742-3.466 7.742-7.742c-.001-18.99-15.451-34.44-34.441-34.44z"/><path d="m83.546 138.456c-18.991 0-34.442 15.45-34.442 34.441s15.451 34.441 34.442 34.441c.378 0 .747-.036 1.111-.089v-15.306c-.364-.052-.733-.089-1.111-.089-10.454 0-18.958-8.504-18.958-18.957s8.504-18.957 18.958-18.957c10.453 0 18.957 8.504 18.957 18.957 0 4.276 3.466 7.742 7.742 7.742s7.742-3.466 7.742-7.742c-.001-18.991-15.451-34.441-34.441-34.441z"/><path d="m83.546 55.353c-18.991 0-34.442 15.45-34.442 34.441s15.451 34.441 34.442 34.441c.378 0 .747-.036 1.111-.089v-15.306c-.364-.052-.733-.089-1.111-.089-10.454 0-18.958-8.504-18.958-18.957s8.504-18.957 18.958-18.957c10.453 0 18.957 8.504 18.957 18.957 0 4.276 3.466 7.742 7.742 7.742s7.742-3.466 7.742-7.742c-.001-18.991-15.451-34.441-34.441-34.441z"/></g><path d="m447.412 493.419h-347.271c-8.552 0-15.484-6.932-15.484-15.484v18.581c0 8.552 6.932 15.484 15.484 15.484h347.272c8.551 0 15.484-6.932 15.484-15.484v-18.581c-.001 8.552-6.933 15.484-15.485 15.484z" fill="#b9cbea"/><path d="m297.739 254.576 6.234 16.48c32.433-12.274 55.93-42.73 58.043-78.933.102-1.756-.703-3.344-1.998-4.322-7.092 31.973-31.165 57.551-62.279 66.775z" fill="#c7495d"/><path d="m304.093 137.432v13.581c0 2.761 2.239 5 5 5h87.645c2.842 0 5.149-2.368 4.998-5.207-.241-4.547-.794-9.011-1.633-13.374z" fill="#83c8ea"/></g></svg>